<svg xmlns="http://www.w3.org/2000/svg" style="position:absolute;width:0;height:0;overflow:hidden">
  <symbol id="icon-retention" viewBox="0 0 24 24">
    <rect x="4" y="5" width="16" height="15" rx="3" fill="none" stroke="currentColor" stroke-width="2" />
    <path d="M8 3.5v4M16 3.5v4" fill="none" stroke="currentColor" stroke-width="2" stroke-linecap="round" />
    <path d="M4 10h16" fill="none" stroke="currentColor" stroke-width="2" stroke-linecap="round" />
    <path d="M8.5 13.5h3M8.5 16.5h7" fill="none" stroke="currentColor" stroke-width="2" stroke-linecap="round" />
  </symbol>

  <symbol id="icon-update" viewBox="0 0 24 24">
    <path d="M19 7.2A8.5 8.5 0 1 0 20 12" fill="none" stroke="currentColor" stroke-width="2" stroke-linecap="round" stroke-linejoin="round" />
    <path d="M20 4v5h-5" fill="none" stroke="currentColor" stroke-width="2" stroke-linecap="round" stroke-linejoin="round" />
  </symbol>

  <symbol id="icon-info" viewBox="0 0 24 24">
    <circle cx="12" cy="12" r="9" fill="none" stroke="currentColor" stroke-width="2" />
    <path d="M12 10.2v6.6" fill="none" stroke="currentColor" stroke-width="2" stroke-linecap="round" />
    <path d="M12 7.2h.01" fill="none" stroke="currentColor" stroke-width="3" stroke-linecap="round" />
  </symbol>

  <symbol id="icon-friend" viewBox="0 0 24 24">
    <path d="M4 13l3.6-3.6a2 2 0 0 1 2.8 0l1.2 1.2" fill="none" stroke="currentColor" stroke-width="2" stroke-linecap="round" stroke-linejoin="round" />
    <path d="M20 13l-3.6-3.6a2 2 0 0 0-2.8 0l-1.2 1.2" fill="none" stroke="currentColor" stroke-width="2" stroke-linecap="round" stroke-linejoin="round" />
    <path d="M10.2 12.6l1.1 1.1a1.9 1.9 0 0 0 2.7 0l.8-.8" fill="none" stroke="currentColor" stroke-width="2" stroke-linecap="round" stroke-linejoin="round" />
    <path d="M9.2 13.9l1.2 1.2M14.6 13.1l1 1" fill="none" stroke="currentColor" stroke-width="2" stroke-linecap="round" stroke-linejoin="round" />
  </symbol>

  <symbol id="icon-dark" viewBox="0 0 24 24">
    <path
      d="M21 14.6A8.4 8.4 0 0 1 9.4 3a7.3 7.3 0 1 0 11.6 11.6Z"
      fill="none"
      stroke="currentColor"
      stroke-width="2"
      stroke-linecap="round"
      stroke-linejoin="round"
    />
  </symbol>
</svg>
